<?xml version="1.0" encoding="UTF-8" standalone="no"?>
<svg xmlns:ffdec="https://www.free-decompiler.com/flash" xmlns:xlink="http://www.w3.org/1999/xlink" ffdec:objectType="shape" height="36.0px" width="36.0px" xmlns="http://www.w3.org/2000/svg">
  <g transform="matrix(1.0, 0.0, 0.0, 1.0, 0.0, 0.0)">
    <path d="M0.0 1.05 L1.0 1.05 1.0 0.0 4.9 0.0 31.05 0.0 34.95 0.0 34.95 1.0 36.0 1.0 36.0 5.0 36.0 31.0 36.0 35.0 35.0 35.0 35.0 36.0 31.05 36.0 4.9 36.0 0.95 36.0 0.95 34.95 0.0 34.95 0.0 31.0 0.0 5.0 0.0 1.05" fill="#000000" fill-rule="evenodd" stroke="none"/>
    <path d="M3.45 31.45 L3.45 31.0 3.45 5.0 3.45 4.5 4.45 4.5 4.45 3.5 4.9 3.5 31.05 3.5 31.45 3.5 31.45 4.5 32.45 4.5 32.45 5.0 32.45 31.0 32.45 31.45 31.45 31.45 31.45 32.45 31.05 32.45 4.9 32.45 4.45 32.45 4.45 31.45 3.45 31.45" fill="url(#gradient0)" fill-rule="evenodd" stroke="none"/>
    <path d="M1.45 5.0 L1.45 2.5 2.45 2.5 2.45 1.5 4.9 1.5 31.05 1.5 33.45 1.5 33.45 2.5 34.45 2.5 34.45 5.0 34.45 31.0 34.45 33.45 33.45 33.45 33.45 34.45 31.05 34.45 4.9 34.45 2.45 34.45 2.45 33.45 1.45 33.45 1.45 31.0 1.45 5.0 M3.45 31.45 L4.45 31.45 4.45 32.45 4.9 32.45 31.05 32.45 31.45 32.45 31.45 31.45 32.45 31.45 32.45 31.0 32.45 5.0 32.45 4.5 31.45 4.5 31.45 3.5 31.05 3.5 4.9 3.5 4.45 3.5 4.45 4.5 3.45 4.5 3.45 5.0 3.45 31.0 3.45 31.45 Z" fill="none" stroke="#c38e6e" stroke-linecap="round" stroke-linejoin="round" stroke-width="1.0"/>
  </g>
  <defs>
    <linearGradient gradientTransform="matrix(0.0, 0.0123, -0.0177, 0.0, 17.95, 18.15)" gradientUnits="userSpaceOnUse" id="gradient0" spreadMethod="pad" x1="-819.2" x2="819.2">
      <stop offset="0.0" stop-color="#6f0c00"/>
      <stop offset="1.0" stop-color="#a41400"/>
    </linearGradient>
  </defs>
</svg>
