<?xml version="1.0" encoding="UTF-8" standalone="no"?>
<svg xmlns:ffdec="https://www.free-decompiler.com/flash" xmlns:xlink="http://www.w3.org/1999/xlink" ffdec:objectType="shape" height="20.0px" width="20.0px" xmlns="http://www.w3.org/2000/svg">
  <g transform="matrix(1.0, 0.0, 0.0, 1.0, 0.0, 0.0)">
    <path d="M3.0 18.0 L2.95 17.95 2.05 17.05 2.0 17.0 2.0 3.0 2.05 2.95 2.95 2.05 3.0 2.0 17.0 2.0 17.05 2.05 17.95 2.95 18.0 3.0 17.05 3.0 17.0 3.0 3.0 3.0 3.0 17.0 3.0 17.05 3.0 18.0" fill="#5a3e30" fill-rule="evenodd" stroke="none"/>
    <path d="M2.0 18.0 L1.05 17.05 1.0 17.0 1.0 3.0 1.05 2.95 2.95 1.05 3.0 1.0 17.0 1.0 17.05 1.05 18.0 2.0 18.0 2.95 18.0 3.0 17.95 2.95 17.05 2.05 17.0 2.0 3.0 2.0 2.95 2.05 2.05 2.95 2.0 3.0 2.0 17.0 2.05 17.05 2.95 17.95 3.0 18.0 3.0 17.05 3.0 17.0 17.0 17.0 17.0 3.0 17.05 3.0 18.0 3.0 18.0 17.0 17.95 17.05 17.05 17.95 17.0 18.0 3.0 18.0 2.95 18.0 2.0 18.0" fill="#b18874" fill-rule="evenodd" stroke="none"/>
    <path d="M18.0 2.0 L17.05 1.05 17.0 1.0 3.0 1.0 2.95 1.05 1.05 2.95 1.0 3.0 1.0 17.0 1.05 17.05 2.0 18.0 2.95 18.95 3.0 19.0 17.0 19.0 17.05 18.95 18.95 17.05 19.0 17.0 19.0 3.0 18.95 2.95 18.0 2.0 M0.0 18.0 L0.0 17.05 0.0 2.95 0.0 2.0 2.0 0.0 2.95 0.0 17.05 0.0 18.0 0.0 20.0 2.0 20.0 2.95 20.0 17.05 20.0 18.0 18.0 20.0 17.05 20.0 2.95 20.0 2.0 20.0 0.0 18.0" fill="#000000" fill-rule="evenodd" stroke="none"/>
    <path d="M18.0 2.0 L18.95 2.95 19.0 3.0 19.0 17.0 18.95 17.05 17.05 18.95 17.0 19.0 3.0 19.0 2.95 18.95 2.0 18.0 2.95 18.0 3.0 18.0 17.0 18.0 17.05 17.95 17.95 17.05 18.0 17.0 18.0 3.0 18.0 2.95 18.0 2.0" fill="#75503e" fill-rule="evenodd" stroke="none"/>
    <path d="M3.0 17.0 L3.0 3.0 17.0 3.0 17.0 17.0 3.0 17.0" fill="#000000" fill-opacity="0.69411767" fill-rule="evenodd" stroke="none"/>
  </g>
</svg>
