<?xml version="1.0" encoding="UTF-8" standalone="no"?>
<svg xmlns:ffdec="https://www.free-decompiler.com/flash" xmlns:xlink="http://www.w3.org/1999/xlink" ffdec:objectType="shape" height="10.0px" width="10.0px" xmlns="http://www.w3.org/2000/svg">
  <g transform="matrix(1.0, 0.0, 0.0, 1.0, 5.15, 5.0)">
    <path d="M-0.15 -5.0 Q1.85 -5.0 3.35 -3.5 4.85 -2.0 4.85 0.0 4.85 2.0 3.35 3.5 1.85 5.0 -0.15 5.0 -2.15 5.0 -3.65 3.5 -5.15 2.0 -5.15 0.0 -5.15 -2.0 -3.65 -3.5 -2.15 -5.0 -0.15 -5.0" fill="#ffffff" fill-opacity="0.0" fill-rule="evenodd" stroke="none"/>
    <path d="M1.4 -1.4 Q2.0 -0.8 2.0 0.0 2.0 0.8 1.4 1.4 0.8 2.0 0.0 2.0 -0.8 2.0 -1.4 1.4 -2.0 0.8 -2.0 0.0 -2.0 -0.8 -1.4 -1.4 -0.8 -2.0 0.0 -2.0 0.8 -2.0 1.4 -1.4" fill="#00ff00" fill-rule="evenodd" stroke="none"/>
  </g>
</svg>
