<?xml version="1.0" encoding="UTF-8" standalone="no"?>
<svg xmlns:ffdec="https://www.free-decompiler.com/flash" xmlns:xlink="http://www.w3.org/1999/xlink" ffdec:objectType="shape" height="100.6px" width="100.6px" xmlns="http://www.w3.org/2000/svg">
  <g transform="matrix(1.0, 0.0, 0.0, 1.0, 0.3, 0.3)">
    <path d="M2.95 99.0 Q1.0 99.0 1.0 97.05 L1.0 89.0 1.0 8.95 1.0 2.95 Q1.0 1.0 2.95 1.0 L9.95 1.0 90.05 1.0 97.05 1.0 Q99.0 1.0 99.0 2.95 L99.0 8.95 99.0 89.0 99.0 97.05 Q99.0 99.0 97.05 99.0 L90.05 99.0 9.95 99.0 2.95 99.0" fill="#663300" fill-opacity="0.08627451" fill-rule="evenodd" stroke="none"/>
    <path d="M99.0 2.95 Q99.0 1.0 97.05 1.0 L90.05 1.0 9.95 1.0 2.95 1.0 Q1.0 1.0 1.0 2.95 L1.0 8.95 1.0 89.0 1.0 97.05 Q1.0 99.0 2.95 99.0" fill="none" stroke="#000000" stroke-linecap="square" stroke-linejoin="miter-clip" stroke-miterlimit="3.0" stroke-opacity="0.2" stroke-width="2.0"/>
    <path d="M2.95 99.0 L9.95 99.0 90.05 99.0 97.05 99.0 Q99.0 99.0 99.0 97.05 L99.0 89.0 99.0 8.95 99.0 2.95" fill="none" stroke="#ffffff" stroke-linecap="square" stroke-linejoin="miter-clip" stroke-miterlimit="3.0" stroke-opacity="0.2" stroke-width="2.0"/>
    <path d="M100.0 100.0 L90.05 100.0 9.95 100.0 0.0 100.0 0.0 89.0 0.0 8.95 0.0 0.0 9.95 0.0 90.05 0.0 100.0 0.0 100.0 8.95 100.0 89.0 100.0 100.0" fill="#33ff00" fill-opacity="0.0" fill-rule="evenodd" stroke="none"/>
  </g>
</svg>
