<?xml version="1.0" encoding="UTF-8" standalone="no"?>
<svg xmlns:ffdec="https://www.free-decompiler.com/flash" xmlns:xlink="http://www.w3.org/1999/xlink" ffdec:objectType="shape" height="28.3px" width="50.3px" xmlns="http://www.w3.org/2000/svg">
  <g transform="matrix(1.0, 0.0, 0.0, 1.0, 0.15, 0.15)">
    <path d="M3.0 6.95 L3.0 3.0 8.1 3.0 43.05 3.0 47.0 3.0 47.0 6.95 47.0 21.05 47.0 25.0 43.05 25.0 8.1 25.0 3.0 25.0 3.0 21.05 3.0 6.95" fill="url(#gradient0)" fill-rule="evenodd" stroke="none"/>
    <path d="M44.5 6.95 L44.5 4.5 45.5 4.5 46.5 5.5 46.5 6.95 46.5 21.05 46.5 22.5 44.5 24.5 43.05 24.5 8.1 24.5 5.5 24.5 4.5 23.5 4.5 22.5 8.1 22.5 43.05 22.5 43.5 22.5 43.5 21.5 44.5 21.5 44.5 21.05 44.5 6.95" fill="none" stroke="#000000" stroke-linecap="square" stroke-linejoin="miter-clip" stroke-miterlimit="3.0" stroke-opacity="0.105882354" stroke-width="1.0"/>
    <path d="M48.5 5.5 L44.5 1.5" fill="none" stroke="#837455" stroke-linecap="square" stroke-linejoin="miter-clip" stroke-miterlimit="3.0" stroke-width="1.0"/>
    <path d="M4.5 26.5 L1.5 23.5 M45.5 26.5 L48.5 23.5" fill="none" stroke="#dfcca1" stroke-linecap="square" stroke-linejoin="miter-clip" stroke-miterlimit="3.0" stroke-width="1.0"/>
    <path d="M1.5 5.5 L5.5 1.5" fill="none" stroke="#8f8061" stroke-linecap="square" stroke-linejoin="miter-clip" stroke-miterlimit="3.0" stroke-width="1.0"/>
    <path d="M43.5 3.5 L43.05 3.5 8.1 3.5 5.5 3.5 3.5 5.5 3.5 6.95 3.5 21.05 3.5 21.5" fill="none" stroke="#ffffff" stroke-linecap="square" stroke-linejoin="miter-clip" stroke-miterlimit="3.0" stroke-opacity="0.105882354" stroke-width="1.0"/>
    <path d="M41.5 5.5 L8.1 5.5 6.5 5.5 6.5 6.5 5.5 6.5 5.5 6.95 5.5 19.5" fill="none" stroke="#ffffff" stroke-linecap="square" stroke-linejoin="miter-clip" stroke-miterlimit="3.0" stroke-opacity="0.047058824" stroke-width="1.0"/>
    <path d="M5.5 26.5 L1.5 22.5 M3.5 26.5 L1.5 24.5" fill="none" stroke="#957c4e" stroke-linecap="square" stroke-linejoin="miter-clip" stroke-miterlimit="3.0" stroke-width="1.0"/>
    <path d="M0.5 25.5 L1.5 25.5 1.5 26.5 2.5 26.5 2.5 27.5 8.1 27.5 43.05 27.5 47.5 27.5 47.5 26.5 48.5 26.5 48.5 25.5 49.5 25.5 49.5 21.05 49.5 6.95 49.5 2.5 48.5 2.5 48.5 1.5 47.5 1.5 47.5 0.5 43.05 0.5 8.1 0.5 2.5 0.5 2.5 1.5 1.5 1.5 1.5 2.5 0.5 2.5 0.5 6.95 0.5 21.05 0.5 25.5" fill="none" stroke="#000000" stroke-linecap="square" stroke-linejoin="miter-clip" stroke-miterlimit="3.0" stroke-width="1.0"/>
    <path d="M17.5 1.5 L8.1 1.5 3.5 1.5 3.5 2.5 2.5 2.5 2.5 3.5 1.5 3.5 1.5 6.95 1.5 10.5 M47.5 3.5 L47.5 2.5 46.5 2.5" fill="none" stroke="#dfcca1" stroke-linecap="square" stroke-linejoin="miter-clip" stroke-miterlimit="3.0" stroke-width="1.0"/>
    <path d="M2.5 22.5 L5.5 25.5 8.1 25.5 43.05 25.5 44.5 25.5 47.5 22.5 47.5 21.05 47.5 6.95 47.5 5.5 44.5 2.5 43.05 2.5 8.1 2.5 5.5 2.5 2.5 5.5 2.5 6.95 2.5 21.05 2.5 22.5" fill="none" stroke="#403521" stroke-linecap="square" stroke-linejoin="miter-clip" stroke-miterlimit="3.0" stroke-width="1.0"/>
    <path d="M5.5 23.5 L8.1 23.5 43.05 23.5 44.5 23.5 44.5 22.5 45.5 22.5 45.5 21.05 45.5 6.95 45.5 5.5" fill="none" stroke="#000000" stroke-linecap="square" stroke-linejoin="miter-clip" stroke-miterlimit="3.0" stroke-opacity="0.2509804" stroke-width="1.0"/>
    <path d="M4.5 21.5 L4.5 21.05 4.5 6.95 4.5 5.5 5.5 5.5 5.5 4.5 8.1 4.5 43.05 4.5 43.5 4.5" fill="none" stroke="#ffffff" stroke-linecap="square" stroke-linejoin="miter-clip" stroke-miterlimit="3.0" stroke-opacity="0.2" stroke-width="1.0"/>
    <path d="M1.5 10.5 L1.5 21.05 1.5 24.5 M46.5 1.5 L43.05 1.5 17.5 1.5" fill="none" stroke="#c7b489" stroke-linecap="square" stroke-linejoin="miter-clip" stroke-miterlimit="3.0" stroke-width="1.0"/>
    <path d="M48.5 3.5 L48.5 6.95 48.5 21.05 48.5 22.5" fill="none" stroke="#957c4e" stroke-linecap="square" stroke-linejoin="miter-clip" stroke-miterlimit="3.0" stroke-width="1.0"/>
    <path d="M48.5 22.5 L48.5 24.5 46.5 26.5 44.5 26.5 48.5 22.5" fill="none" stroke="#957c4e" stroke-linecap="round" stroke-linejoin="miter-clip" stroke-miterlimit="3.0" stroke-width="1.0"/>
    <path d="M44.5 26.5 L43.05 26.5 8.1 26.5 3.5 26.5" fill="none" stroke="#957c4e" stroke-linecap="round" stroke-linejoin="miter-clip" stroke-miterlimit="3.0" stroke-width="1.0"/>
  </g>
  <defs>
    <linearGradient gradientTransform="matrix(0.0, -0.0134, 0.0134, 0.0, 25.0, 14.0)" gradientUnits="userSpaceOnUse" id="gradient0" spreadMethod="pad" x1="-819.2" x2="819.2">
      <stop offset="0.0" stop-color="#101010"/>
      <stop offset="1.0" stop-color="#393939"/>
    </linearGradient>
  </defs>
</svg>
