<?xml version="1.0" encoding="UTF-8" standalone="no"?>
<svg xmlns:ffdec="https://www.free-decompiler.com/flash" xmlns:xlink="http://www.w3.org/1999/xlink" ffdec:objectType="shape" height="70.0px" width="70.0px" xmlns="http://www.w3.org/2000/svg">
  <g transform="matrix(1.0, 0.0, 0.0, 1.0, 0.0, 0.0)">
    <path d="M66.0 4.0 L65.0 3.0 66.0 2.0 68.0 4.0 67.0 5.0 66.05 4.05 66.0 4.0 M3.0 65.0 L4.0 66.0 4.05 66.05 5.0 67.0 4.0 68.0 2.0 66.0 3.0 65.0" fill="#7e5f50" fill-rule="evenodd" stroke="none"/>
    <path d="M68.0 4.0 L68.0 5.95 68.0 64.05 68.0 66.0 66.0 68.0 64.05 68.0 5.95 68.0 4.0 68.0 5.0 67.0 5.95 67.0 64.05 67.0 65.0 67.0 66.0 66.0 67.0 65.0 67.0 64.05 67.0 5.95 67.0 5.0 68.0 4.0" fill="#a07967" fill-rule="evenodd" stroke="none"/>
    <path d="M4.0 66.0 L4.1 66.0 5.95 66.0 64.05 66.0 66.0 66.0 66.0 64.05 66.0 5.95 66.0 4.1 66.0 4.0 66.05 4.05 67.0 5.0 67.0 5.95 67.0 64.05 67.0 65.0 66.0 66.0 65.0 67.0 64.05 67.0 5.95 67.0 5.0 67.0 4.05 66.05 4.0 66.0 M4.1 66.0 L4.05 66.05 4.1 66.0 M66.0 4.1 L66.05 4.05 66.0 4.1" fill="#573223" fill-rule="evenodd" stroke="none"/>
    <path d="M2.0 0.0 L5.95 0.0 64.05 0.0 68.0 0.0 70.0 2.0 70.0 5.95 70.0 64.05 70.0 68.0 68.0 70.0 64.05 70.0 5.95 70.0 2.0 70.0 0.0 68.0 0.0 64.05 0.0 5.95 0.0 2.0 2.0 0.0 M4.0 66.0 L4.0 64.05 4.0 5.95 4.0 4.0 5.95 4.0 64.05 4.0 66.0 4.0 66.0 4.1 66.0 5.95 66.0 64.05 66.0 66.0 64.05 66.0 5.95 66.0 4.1 66.0 4.0 66.0 M3.0 69.0 L5.95 69.0 64.05 69.0 67.0 69.0 69.0 67.0 69.0 64.05 69.0 5.95 69.0 3.0 67.0 1.0 64.05 1.0 5.95 1.0 3.0 1.0 1.0 3.0 1.0 5.95 1.0 64.05 1.0 67.0 3.0 69.0 M5.0 5.95 L5.0 64.05 5.0 65.0 5.95 65.0 64.05 65.0 65.0 65.0 65.0 64.05 65.0 5.95 65.0 5.0 64.05 5.0 5.95 5.0 5.0 5.0 5.0 5.95" fill="#000000" fill-rule="evenodd" stroke="none"/>
    <path d="M3.0 69.0 L1.0 67.0 1.0 64.05 1.0 5.95 1.0 3.0 3.0 1.0 5.95 1.0 64.05 1.0 67.0 1.0 69.0 3.0 68.0 4.0 66.0 2.0 64.05 2.0 5.95 2.0 4.0 2.0 2.0 4.0 2.0 5.95 2.0 64.05 2.0 66.0 4.0 68.0 3.0 69.0" fill="#b18773" fill-rule="evenodd" stroke="none"/>
    <path d="M69.0 3.0 L69.0 5.95 69.0 64.05 69.0 67.0 67.0 69.0 64.05 69.0 5.95 69.0 3.0 69.0 4.0 68.0 5.95 68.0 64.05 68.0 66.0 68.0 68.0 66.0 68.0 64.05 68.0 5.95 68.0 4.0 69.0 3.0" fill="#3b2921" fill-rule="evenodd" stroke="none"/>
    <path d="M65.0 3.0 L64.05 3.0 5.95 3.0 5.0 3.0 4.0 4.0 3.0 5.0 3.0 5.95 3.0 64.05 3.0 65.0 2.0 66.0 2.0 64.05 2.0 5.95 2.0 4.0 4.0 2.0 5.95 2.0 64.05 2.0 66.0 2.0 65.0 3.0" fill="#492e22" fill-rule="evenodd" stroke="none"/>
    <path d="M66.0 4.0 L64.05 4.0 5.95 4.0 4.0 4.0 4.0 5.95 4.0 64.05 4.0 66.0 3.0 65.0 3.0 64.05 3.0 5.95 3.0 5.0 4.0 4.0 5.0 3.0 5.95 3.0 64.05 3.0 65.0 3.0 66.0 4.0" fill="#3e170f" fill-rule="evenodd" stroke="none"/>
    <path d="M4.05 66.05 L4.1 66.0 M66.05 4.05 L66.0 4.1" ffdec:has-small-stroke="true" ffdec:original-stroke-width="0.05" fill="none" stroke="#8c796a" stroke-linecap="round" stroke-linejoin="round" stroke-width="1.0"/>
    <path d="M65.05 66.05 L65.05 69.05 64.05 69.05 64.05 66.05 65.05 66.05 M5.0 66.0 L5.95 66.0 6.0 66.0 6.0 69.0 5.95 69.0 5.0 69.0 5.0 66.0 M6.0 4.0 L5.95 4.0 5.0 4.0 5.0 1.0 5.95 1.0 6.0 1.0 6.0 4.0 M64.0 1.0 L64.05 1.0 65.0 1.0 65.0 4.0 64.05 4.0 64.0 4.0 64.0 1.0 M4.0 5.0 L4.0 5.95 4.0 6.0 1.0 6.0 1.0 5.95 1.0 5.0 4.0 5.0 M69.05 5.0 L69.05 5.95 69.05 6.0 66.05 6.0 66.05 5.95 66.05 5.0 69.05 5.0 M66.0 65.0 L66.0 64.05 66.0 64.0 69.0 64.0 69.0 64.05 69.0 65.0 66.0 65.0 M1.0 65.0 L1.0 64.05 1.0 64.0 4.0 64.0 4.0 64.05 4.0 65.0 1.0 65.0" fill="#000000" fill-opacity="0.6" fill-rule="evenodd" stroke="none"/>
  </g>
</svg>
