<?xml version="1.0" encoding="UTF-8" standalone="no"?>
<svg xmlns:ffdec="https://www.free-decompiler.com/flash" xmlns:xlink="http://www.w3.org/1999/xlink" ffdec:objectType="shape" height="36.0px" width="36.0px" xmlns="http://www.w3.org/2000/svg">
  <g transform="matrix(1.0, 0.0, 0.0, 1.0, 0.0, 0.0)">
    <path d="M0.0 1.0 L0.95 1.0 0.95 0.0 4.9 0.0 31.0 0.0 34.95 0.0 34.95 1.0 36.0 1.0 36.0 4.9 36.0 31.0 36.0 34.95 34.95 34.95 34.95 36.0 31.0 36.0 4.9 36.0 1.0 36.0 1.0 35.0 0.0 35.0 0.0 31.0 0.0 4.9 0.0 1.0" fill="#000000" fill-rule="evenodd" stroke="none"/>
    <path d="M31.45 3.5 L31.45 4.5 32.45 4.5 32.45 4.9 32.45 31.0 32.45 31.5 31.45 31.5 31.45 32.5 31.0 32.5 4.9 32.5 4.45 32.5 4.45 31.5 3.45 31.5 3.45 31.0 3.45 4.9 3.45 4.5 4.45 4.5 4.45 3.5 4.9 3.5 31.0 3.5 31.45 3.5" fill="url(#gradient0)" fill-rule="evenodd" stroke="none"/>
    <path d="M31.45 3.5 L31.45 4.5 32.45 4.5 32.45 4.9 32.45 31.0 32.45 31.5 31.45 31.5 31.45 32.5" fill="none" stroke="#6c3a21" stroke-linecap="round" stroke-linejoin="round" stroke-width="1.0"/>
    <path d="M33.45 1.5 L33.45 2.5 34.45 2.5 34.45 4.9 34.45 31.0 34.45 33.5 33.45 33.5 33.45 34.5" fill="none" stroke="#835c3f" stroke-linecap="round" stroke-linejoin="round" stroke-width="1.0"/>
    <path d="M4.45 32.5 L4.45 31.5 3.45 31.5 3.45 31.0 3.45 4.9 3.45 4.5 4.45 4.5 4.45 3.5" fill="none" stroke="#c48d6f" stroke-linecap="round" stroke-linejoin="round" stroke-width="1.0"/>
    <path d="M2.45 34.5 L2.45 33.5 1.45 33.5 1.45 31.0 1.45 4.9 1.45 2.5 2.45 2.5 2.45 1.5" fill="none" stroke="#dbc4b4" stroke-linecap="round" stroke-linejoin="round" stroke-width="1.0"/>
    <path d="M31.45 32.5 L31.0 32.5 4.9 32.5 4.45 32.5 M4.45 3.5 L4.9 3.5 31.0 3.5 31.45 3.5" fill="none" stroke="#91583b" stroke-linecap="round" stroke-linejoin="round" stroke-width="1.0"/>
    <path d="M2.45 1.5 L4.9 1.5 31.0 1.5 33.45 1.5 M33.45 34.5 L31.0 34.5 4.9 34.5 2.45 34.5" fill="none" stroke="#917462" stroke-linecap="round" stroke-linejoin="round" stroke-width="1.0"/>
  </g>
  <defs>
    <linearGradient gradientTransform="matrix(0.0, 0.013, -0.0177, 0.0, 17.95, 17.25)" gradientUnits="userSpaceOnUse" id="gradient0" spreadMethod="pad" x1="-819.2" x2="819.2">
      <stop offset="0.0" stop-color="#381200"/>
      <stop offset="1.0" stop-color="#602000"/>
    </linearGradient>
  </defs>
</svg>
