<?xml version="1.0" encoding="UTF-8" standalone="no"?>
<svg xmlns:ffdec="https://www.free-decompiler.com/flash" xmlns:xlink="http://www.w3.org/1999/xlink" ffdec:objectType="shape" height="36.0px" width="36.0px" xmlns="http://www.w3.org/2000/svg">
  <g transform="matrix(1.0, 0.0, 0.0, 1.0, 0.0, 0.0)">
    <path d="M0.0 1.05 L0.95 1.05 0.95 0.0 4.95 0.0 31.0 0.0 35.05 0.0 35.05 1.05 36.0 1.05 36.0 4.95 36.0 31.0 36.0 35.0 35.05 35.0 35.05 36.0 31.0 36.0 4.95 36.0 0.95 36.0 0.95 35.0 0.0 35.0 0.0 31.0 0.0 4.95 0.0 1.05" fill="#000000" fill-rule="evenodd" stroke="none"/>
    <path d="M3.4 4.95 L3.4 4.5 4.4 4.5 4.4 3.5 4.95 3.5 31.0 3.5 31.4 3.5 31.4 4.5 32.4 4.5 32.4 4.95 32.4 31.0 32.4 31.45 31.4 31.45 31.4 32.45 31.0 32.45 4.95 32.45 4.4 32.45 4.4 31.45 3.4 31.45 3.4 31.0 3.4 4.95" fill="url(#gradient0)" fill-rule="evenodd" stroke="none"/>
    <path d="M33.4 1.5 L33.4 2.5 34.4 2.5 34.4 4.95 34.4 31.0 34.4 33.45 33.4 33.45 33.4 34.45 32.4 34.45" fill="none" stroke="#835c3f" stroke-linecap="round" stroke-linejoin="round" stroke-width="1.0"/>
    <path d="M3.4 4.95 L3.4 4.5 4.4 4.5 4.4 3.5 4.95 3.5 31.0 3.5 31.4 3.5 31.4 4.5 32.4 4.5 32.4 4.95 32.4 31.0 32.4 31.45 31.4 31.45 31.4 32.45 31.0 32.45 4.95 32.45 4.4 32.45 4.4 31.45 3.4 31.45 3.4 31.0 3.4 4.95" fill="none" stroke="#321203" stroke-linecap="round" stroke-linejoin="round" stroke-width="1.0"/>
    <path d="M32.4 34.45 L31.0 34.45 4.95 34.45 2.4 34.45 2.4 33.45 1.4 33.45 1.4 31.0 1.4 4.95 1.4 2.5 2.4 2.5 2.4 1.5 4.95 1.5 31.0 1.5 33.4 1.5" fill="none" stroke="#dbc4b4" stroke-linecap="round" stroke-linejoin="round" stroke-width="1.0"/>
  </g>
  <defs>
    <linearGradient gradientTransform="matrix(0.0, 0.0137, -0.0177, 0.0, 17.9, 18.4)" gradientUnits="userSpaceOnUse" id="gradient0" spreadMethod="pad" x1="-819.2" x2="819.2">
      <stop offset="0.0" stop-color="#6f0c00"/>
      <stop offset="1.0" stop-color="#d50d01"/>
    </linearGradient>
  </defs>
</svg>
