<?xml version="1.0" encoding="UTF-8" standalone="no"?>
<svg xmlns:ffdec="https://www.free-decompiler.com/flash" xmlns:xlink="http://www.w3.org/1999/xlink" ffdec:objectType="shape" height="21.15px" width="29.3px" xmlns="http://www.w3.org/2000/svg">
  <g transform="matrix(1.0, 0.0, 0.0, 1.0, 0.15, 0.0)">
    <path d="M1.5 18.5 L1.5 16.9 1.5 4.8 1.5 3.5 2.5 3.5 2.5 2.5 4.2 2.5 25.2 2.5 26.5 2.5 26.5 3.5 27.5 3.5 27.5 4.8 27.5 16.9 27.5 18.5 26.5 18.5 26.5 19.5 25.2 19.5 4.2 19.5 2.5 19.5 2.5 18.5 1.5 18.5" fill="#130d09" fill-opacity="0.6" fill-rule="evenodd" stroke="none"/>
    <path d="M1.0 0.0 L1.0 1.0 0.0 1.0 0.0 0.0 1.0 0.0" fill="#130d09" fill-opacity="0.0" fill-rule="evenodd" stroke="none"/>
    <path d="M1.5 18.5 L2.5 18.5 2.5 19.5 4.2 19.5 25.2 19.5 26.5 19.5 26.5 18.5 27.5 18.5 27.5 16.9 27.5 4.8 27.5 3.5 26.5 3.5 26.5 2.5 25.2 2.5 4.2 2.5 2.5 2.5 2.5 3.5 1.5 3.5 1.5 4.8 1.5 16.9 1.5 18.5" fill="none" stroke="#353129" stroke-linecap="square" stroke-linejoin="miter-clip" stroke-miterlimit="3.0" stroke-width="1.0"/>
    <path d="M0.5 19.5 L1.5 19.5 1.5 20.5 4.2 20.5 25.2 20.5 27.5 20.5 27.5 19.5 28.5 19.5 28.5 16.9 28.5 4.8 28.5 2.5 27.5 2.5 27.5 1.5 25.2 1.5 4.2 1.5 1.5 1.5 1.5 2.5 0.5 2.5 0.5 4.8 0.5 16.9 0.5 19.5 Z" fill="none" stroke="#000000" stroke-linecap="square" stroke-linejoin="miter-clip" stroke-miterlimit="3.0" stroke-width="1.0"/>
  </g>
</svg>
