<?xml version="1.0" encoding="UTF-8" standalone="no"?>
<svg xmlns:ffdec="https://www.free-decompiler.com/flash" xmlns:xlink="http://www.w3.org/1999/xlink" ffdec:objectType="shape" height="24.0px" width="28.0px" xmlns="http://www.w3.org/2000/svg">
  <g transform="matrix(1.0, 0.0, 0.0, 1.0, 0.0, 0.0)">
    <path d="M27.0 19.0 L27.0 23.0 23.0 23.0 23.0 22.0 25.0 22.0 25.0 21.0 26.0 21.0 26.0 19.0 27.0 19.0 M21.0 23.0 L7.0 23.0 7.0 22.0 21.0 22.0 21.0 23.0 M6.0 23.0 L1.0 23.0 1.0 22.0 3.0 22.0 6.0 22.0 6.0 23.0 M27.0 2.0 L27.0 6.0 24.0 6.0 24.0 5.0 25.0 5.0 26.0 5.0 26.0 2.0 27.0 2.0 M27.0 7.0 L27.0 17.0 26.0 17.0 26.0 7.0 27.0 7.0" fill="#4d3428" fill-rule="evenodd" stroke="none"/>
    <path d="M27.0 18.0 L27.0 17.05 27.0 17.0 27.0 7.0 27.0 6.95 27.0 6.0 27.0 2.0 27.0 1.0 23.0 1.0 22.0 1.0 21.0 1.0 7.0 1.0 6.0 1.0 5.0 1.0 1.0 1.0 1.0 5.0 1.0 6.0 1.0 6.95 1.0 7.0 1.0 17.0 1.0 17.05 1.0 18.0 1.0 19.0 1.0 22.0 1.0 23.0 6.0 23.0 7.0 23.0 21.0 23.0 22.0 23.0 23.0 23.0 27.0 23.0 27.0 19.0 27.0 18.0 M24.0 17.0 L24.0 17.05 24.0 18.0 24.0 19.0 23.0 19.0 23.0 20.0 22.0 20.0 21.0 20.0 7.0 20.0 6.0 20.0 5.0 20.0 5.0 19.0 4.0 19.0 4.0 18.0 4.0 17.05 4.0 17.0 4.0 7.0 4.0 6.95 4.0 6.0 4.0 5.0 5.0 5.0 5.0 4.0 6.0 4.0 7.0 4.0 21.0 4.0 22.0 4.0 23.0 4.0 23.0 5.0 24.0 5.0 24.0 6.0 24.0 6.95 24.0 7.0 24.0 17.0 M6.0 18.0 L6.0 19.0 7.0 19.0 21.0 19.0 22.0 19.0 22.0 18.0 23.0 18.0 23.0 17.05 23.0 6.95 23.0 6.0 22.0 6.0 22.0 5.0 21.0 5.0 7.0 5.0 6.0 5.0 6.0 6.0 5.0 6.0 4.95 6.0 4.95 6.95 4.95 7.0 5.0 7.0 5.0 17.05 5.0 18.0 6.0 18.0 M0.0 6.95 L0.0 0.0 7.0 0.0 21.0 0.0 28.0 0.0 28.0 6.95 28.0 17.05 28.0 24.0 21.0 24.0 7.0 24.0 0.0 24.0 0.0 17.05 0.0 6.95" fill="#000000" fill-rule="evenodd" stroke="none"/>
    <path d="M1.0 22.0 L1.0 19.0 2.0 19.0 2.0 21.0 3.0 21.0 3.0 22.0 1.0 22.0 M1.0 17.0 L1.0 7.0 2.0 7.0 2.0 17.0 1.0 17.0 M1.0 5.0 L1.0 1.0 5.0 1.0 5.0 2.0 3.0 2.0 3.0 3.0 2.0 3.0 2.0 5.0 1.0 5.0 M7.0 1.0 L21.0 1.0 21.0 2.0 7.0 2.0 7.0 1.0 M23.0 1.0 L27.0 1.0 27.0 2.0 26.0 2.0 26.0 5.0 25.0 5.0 25.0 4.0 24.0 4.0 24.0 3.0 23.0 3.0 23.0 1.0 M26.0 17.0 L25.0 17.0 25.0 7.0 26.0 7.0 26.0 17.0 M7.0 21.0 L21.0 21.0 21.0 22.0 7.0 22.0 7.0 21.0 M23.0 22.0 L23.0 21.0 24.0 21.0 24.0 20.0 25.0 20.0 25.0 19.0 26.0 19.0 26.0 21.0 25.0 21.0 25.0 22.0 23.0 22.0" fill="#724e3d" fill-rule="evenodd" stroke="none"/>
    <path d="M27.0 18.0 L27.0 19.0 26.0 19.0 25.0 19.0 25.0 20.0 24.0 20.0 24.0 21.0 23.0 21.0 23.0 22.0 23.0 23.0 22.0 23.0 22.0 20.0 23.0 20.0 23.0 19.0 24.0 19.0 24.0 18.0 27.0 18.0 M1.0 19.0 L1.0 18.0 3.0 18.0 3.0 20.0 4.0 20.0 4.0 21.0 6.0 21.0 6.0 22.0 3.0 22.0 3.0 21.0 2.0 21.0 2.0 19.0 1.0 19.0 M1.0 6.0 L1.0 5.0 2.0 5.0 2.0 3.0 3.0 3.0 3.0 2.0 5.0 2.0 5.0 1.0 6.0 1.0 6.0 3.0 4.0 3.0 4.0 4.0 3.0 4.0 3.0 6.0 1.0 6.0 M22.0 1.0 L23.0 1.0 23.0 3.0 24.0 3.0 24.0 4.0 25.0 4.0 25.0 5.0 24.0 5.0 23.0 5.0 23.0 4.0 22.0 4.0 22.0 1.0 M25.0 17.0 L24.0 17.0 24.0 7.0 25.0 7.0 25.0 17.0 M7.0 20.0 L21.0 20.0 21.0 21.0 7.0 21.0 7.0 20.0 M3.0 17.0 L2.0 17.0 2.0 7.0 3.0 7.0 3.0 17.0 M7.0 2.0 L21.0 2.0 21.0 3.0 7.0 3.0 7.0 2.0" fill="#d5b09f" fill-rule="evenodd" stroke="none"/>
    <path d="M27.0 17.0 L27.0 17.05 27.0 18.0 24.0 18.0 24.0 17.05 24.0 17.0 25.0 17.0 26.0 17.0 27.0 17.0 M22.0 23.0 L21.0 23.0 21.0 22.0 21.0 21.0 21.0 20.0 22.0 20.0 22.0 23.0 M7.0 23.0 L6.0 23.0 6.0 22.0 6.0 21.0 6.0 20.0 7.0 20.0 7.0 21.0 7.0 22.0 7.0 23.0 M1.0 18.0 L1.0 17.05 1.0 17.0 2.0 17.0 3.0 17.0 4.0 17.0 4.0 17.05 4.0 18.0 3.0 18.0 1.0 18.0 M1.0 7.0 L1.0 6.95 1.0 6.0 3.0 6.0 4.0 6.0 4.0 6.95 4.0 7.0 3.0 7.0 2.0 7.0 1.0 7.0 M6.0 1.0 L7.0 1.0 7.0 2.0 7.0 3.0 7.0 4.0 6.0 4.0 6.0 3.0 6.0 1.0 M21.0 1.0 L22.0 1.0 22.0 4.0 21.0 4.0 21.0 3.0 21.0 2.0 21.0 1.0 M27.0 6.0 L27.0 6.95 27.0 7.0 26.0 7.0 25.0 7.0 24.0 7.0 24.0 6.95 24.0 6.0 27.0 6.0" fill="#301d14" fill-rule="evenodd" stroke="none"/>
    <path d="M6.0 17.0 L6.0 17.05 6.0 18.0 5.0 18.0 5.0 17.05 5.0 7.0 5.0 6.95 5.0 6.0 6.0 6.0 6.0 5.0 7.0 5.0 21.0 5.0 22.0 5.0 22.0 6.0 21.0 6.0 7.0 6.0 6.0 6.0 6.0 6.95 6.0 17.0" fill="#666666" fill-rule="evenodd" stroke="none"/>
    <path d="M6.0 18.0 L7.0 18.0 21.0 18.0 22.0 18.0 22.0 17.05 22.0 7.0 22.0 6.95 22.0 6.0 23.0 6.0 23.0 6.95 23.0 17.05 23.0 18.0 22.0 18.0 22.0 19.0 21.0 19.0 7.0 19.0 6.0 19.0 6.0 18.0" fill="#181818" fill-rule="evenodd" stroke="none"/>
    <path d="M4.0 18.0 L4.0 19.0 5.0 19.0 5.0 20.0 6.0 20.0 6.0 21.0 4.0 21.0 4.0 20.0 3.0 20.0 3.0 18.0 4.0 18.0 M4.0 7.0 L4.0 17.0 3.0 17.0 3.0 7.0 4.0 7.0 M7.0 3.0 L21.0 3.0 21.0 4.0 7.0 4.0 7.0 3.0 M6.0 4.0 L5.0 4.0 5.0 5.0 4.0 5.0 4.0 6.0 3.0 6.0 3.0 4.0 4.0 4.0 4.0 3.0 6.0 3.0 6.0 4.0" fill="#b18773" fill-rule="evenodd" stroke="none"/>
    <path d="M22.0 7.0 L22.0 17.05 22.0 18.0 21.0 18.0 7.0 18.0 6.0 18.0 6.0 17.05 6.0 17.0 7.0 17.0 21.0 17.0 21.0 7.0 22.0 7.0" fill="#252525" fill-rule="evenodd" stroke="none"/>
    <path d="M22.0 7.0 L21.0 7.0 7.0 7.0 7.0 17.0 6.0 17.0 6.0 6.95 6.0 6.0 7.0 6.0 21.0 6.0 22.0 6.0 22.0 6.95 22.0 7.0 M5.0 7.0 L4.95 7.0 4.95 6.95 4.95 6.0 5.0 6.0 5.0 6.95 5.0 7.0" fill="#545454" fill-rule="evenodd" stroke="none"/>
  </g>
</svg>
