<?xml version="1.0" encoding="UTF-8" standalone="no"?>
<svg xmlns:ffdec="https://www.free-decompiler.com/flash" xmlns:xlink="http://www.w3.org/1999/xlink" ffdec:objectType="shape" height="35.0px" width="35.0px" xmlns="http://www.w3.org/2000/svg">
  <g transform="matrix(1.0, 0.0, 0.0, 1.0, 0.0, 0.0)">
    <path d="M35.0 35.0 L30.05 35.0 4.95 35.0 0.0 35.0 0.0 30.05 0.0 4.95 0.0 0.0 4.95 0.0 30.05 0.0 35.0 0.0 35.0 4.95 35.0 30.05 35.0 35.0" fill="#66ff00" fill-opacity="0.0" fill-rule="evenodd" stroke="none"/>
    <path d="M34.5 33.5 L33.5 33.5 33.5 34.5 30.05 34.5 4.95 34.5 1.5 34.5 1.5 33.5 0.5 33.5 0.5 30.05 0.5 4.95 0.5 1.5 1.5 1.5 1.5 0.5 4.95 0.5 30.05 0.5 33.5 0.5 33.5 1.5 34.5 1.5 34.5 4.95 34.5 30.05 34.5 33.5 M2.5 31.5 L3.5 31.5 3.5 32.5 4.95 32.5 30.05 32.5 31.5 32.5 31.5 31.5 32.5 31.5 32.5 30.05 32.5 4.95 32.5 3.5 31.5 3.5 31.5 2.5 30.05 2.5 4.95 2.5 3.5 2.5 3.5 3.5 2.5 3.5 2.5 4.95 2.5 30.05 2.5 31.5" ffdec:has-small-stroke="true" ffdec:original-stroke-width="0.05" fill="none" stroke="#000000" stroke-linecap="square" stroke-linejoin="miter-clip" stroke-miterlimit="3.0" stroke-width="1.0"/>
    <path d="M1.5 4.95 L1.5 2.5 2.5 2.5 2.5 1.5 4.95 1.5 30.05 1.5 32.5 1.5 32.5 2.5 33.5 2.5 33.5 4.95 33.5 30.05 33.5 32.5 32.5 32.5 32.5 33.5 30.05 33.5 4.95 33.5 2.5 33.5 2.5 32.5 1.5 32.5 1.5 30.05 1.5 4.95 Z" ffdec:has-small-stroke="true" ffdec:original-stroke-width="0.05" fill="none" stroke="#b28774" stroke-linecap="square" stroke-linejoin="miter-clip" stroke-miterlimit="3.0" stroke-width="1.0"/>
  </g>
</svg>
