<?xml version="1.0" encoding="UTF-8" standalone="no"?>
<svg xmlns:ffdec="https://www.free-decompiler.com/flash" xmlns:xlink="http://www.w3.org/1999/xlink" ffdec:objectType="shape" height="40.0px" width="40.0px" xmlns="http://www.w3.org/2000/svg">
  <g transform="matrix(1.0, 0.0, 0.0, 1.0, 0.0, 0.0)">
    <path d="M38.0 38.0 L38.0 36.0 38.0 3.95 38.0 2.0 36.05 2.0 3.95 2.0 2.0 2.0 2.0 3.95 2.0 36.0 2.0 38.0 3.95 38.0 36.05 38.0 38.0 38.0 M37.0 37.0 L36.05 37.0 3.95 37.0 3.0 37.0 3.0 36.0 3.0 3.95 3.0 3.0 3.95 3.0 36.05 3.0 37.0 3.0 37.0 3.95 37.0 36.0 37.0 37.0 M40.0 40.0 L36.05 40.0 3.95 40.0 0.0 40.0 0.0 36.0 0.0 3.95 0.0 0.0 3.95 0.0 36.05 0.0 40.0 0.0 40.0 3.95 40.0 36.0 40.0 40.0 M4.0 4.0 L4.0 36.0 36.0 36.0 36.0 4.0 4.0 4.0" fill="#000000" fill-rule="evenodd" stroke="none"/>
    <path d="M38.0 38.0 L36.05 38.0 3.95 38.0 2.0 38.0 2.0 36.0 2.0 3.95 2.0 2.0 3.95 2.0 36.05 2.0 38.0 2.0 38.0 3.95 38.0 36.0 38.0 38.0 M37.0 37.0 L37.0 36.0 37.0 3.95 37.0 3.0 36.05 3.0 3.95 3.0 3.0 3.0 3.0 3.95 3.0 36.0 3.0 37.0 3.95 37.0 36.05 37.0 37.0 37.0" fill="#b58674" fill-rule="evenodd" stroke="none"/>
  </g>
</svg>
