<?xml version="1.0" encoding="UTF-8" standalone="no"?>
<svg xmlns:ffdec="https://www.free-decompiler.com/flash" xmlns:xlink="http://www.w3.org/1999/xlink" ffdec:objectType="shape" height="10.0px" width="10.0px" xmlns="http://www.w3.org/2000/svg">
  <g transform="matrix(1.0, 0.0, 0.0, 1.0, 0.0, 0.0)">
    <path d="M3.95 10.0 L0.0 10.0 0.0 0.0 3.95 0.0 6.05 0.0 10.0 0.0 10.0 10.0 6.05 10.0 3.95 10.0" fill="#000000" fill-rule="evenodd" stroke="none"/>
    <path d="M1.5 3.95 L1.5 3.5 1.5 2.5 2.5 1.5 3.5 1.5 3.95 1.5 6.05 1.5 6.5 1.5 7.5 1.5 8.5 2.5 8.5 3.5 8.5 3.95 8.5 6.05 8.5 6.5 8.5 7.5 7.5 8.5 6.5 8.5 6.05 8.5 3.95 8.5 3.5 8.5 2.5 8.5 1.5 7.5 1.5 6.5 1.5 6.05 1.5 3.95 M6.5 8.5 L6.5 7.5 7.5 6.5 8.5 6.5 M1.5 6.5 L2.5 6.5 3.5 7.5 3.5 8.5 M3.5 1.5 L3.5 2.5 2.5 3.5 1.5 3.5 M6.5 1.5 L6.5 2.5 7.5 3.5 8.5 3.5" ffdec:has-small-stroke="true" ffdec:original-stroke-width="0.05" fill="none" stroke="#b18876" stroke-linecap="round" stroke-linejoin="round" stroke-width="1.0"/>
  </g>
</svg>
