<?xml version="1.0" encoding="UTF-8" standalone="no"?>
<svg xmlns:ffdec="https://www.free-decompiler.com/flash" xmlns:xlink="http://www.w3.org/1999/xlink" ffdec:objectType="shape" height="100.0px" width="100.0px" xmlns="http://www.w3.org/2000/svg">
  <g transform="matrix(1.0, 0.0, 0.0, 1.0, 0.0, 0.0)">
    <path d="M99.0 99.0 L94.5 99.0 3.95 99.0 1.0 99.0 1.0 94.05 1.0 6.95 1.0 1.0 3.95 1.0 94.5 1.0 99.0 1.0 99.0 6.95 99.0 94.05 99.0 99.0 M2.0 6.95 L2.0 94.05 2.0 98.0 3.95 98.0 94.5 98.0 98.0 98.0 98.0 94.05 98.0 6.95 98.0 2.0 94.5 2.0 3.95 2.0 2.0 2.0 2.0 6.95" fill="#221100" fill-opacity="0.64705884" fill-rule="evenodd" stroke="none"/>
    <path d="M2.0 6.95 L2.0 2.0 3.95 2.0 94.5 2.0 98.0 2.0 98.0 6.95 98.0 94.05 98.0 98.0 94.5 98.0 3.95 98.0 2.0 98.0 2.0 94.05 2.0 6.95" fill="#130d09" fill-rule="evenodd" stroke="none"/>
    <path d="M100.0 100.0 L94.5 100.0 3.95 100.0 0.0 100.0 0.0 94.05 0.0 6.95 0.0 0.0 3.95 0.0 94.5 0.0 100.0 0.0 100.0 6.95 100.0 94.05 100.0 100.0 M99.0 99.0 L99.0 94.05 99.0 6.95 99.0 1.0 94.5 1.0 3.95 1.0 1.0 1.0 1.0 6.95 1.0 94.05 1.0 99.0 3.95 99.0 94.5 99.0 99.0 99.0" fill="#000000" fill-opacity="0.79607844" fill-rule="evenodd" stroke="none"/>
    <path d="M100.0 100.0 L94.5 100.0 3.95 100.0 0.0 100.0 0.0 94.05 0.0 6.95 0.0 0.0 3.95 0.0 94.5 0.0 100.0 0.0 100.0 6.95 100.0 94.05 100.0 100.0 M2.0 6.95 L2.0 2.0 3.95 2.0 94.5 2.0 98.0 2.0 98.0 6.95 98.0 94.05 98.0 98.0 94.5 98.0 3.95 98.0 2.0 98.0 2.0 94.05 2.0 6.95" ffdec:has-small-stroke="true" ffdec:original-stroke-width="0.05" fill="none" stroke="#000000" stroke-linecap="round" stroke-linejoin="round" stroke-width="1.0"/>
    <path d="M99.0 99.0 L94.5 99.0 3.95 99.0 1.0 99.0 1.0 94.05 1.0 6.95 1.0 1.0 3.95 1.0 94.5 1.0 99.0 1.0 99.0 6.95 99.0 94.05 99.0 99.0 Z" ffdec:has-small-stroke="true" ffdec:original-stroke-width="0.05" fill="none" stroke="#353129" stroke-linecap="round" stroke-linejoin="round" stroke-width="1.0"/>
  </g>
</svg>
