<?xml version="1.0" encoding="UTF-8" standalone="no"?>
<svg xmlns:ffdec="https://www.free-decompiler.com/flash" xmlns:xlink="http://www.w3.org/1999/xlink" ffdec:objectType="shape" height="100.05px" width="100.05px" xmlns="http://www.w3.org/2000/svg">
  <g transform="matrix(1.0, 0.0, 0.0, 1.0, 0.05, 0.05)">
    <path d="M1.0 98.0 L14.95 98.0 83.3 98.0 98.0 98.0 98.0 82.8 98.0 14.2 98.0 1.0 83.3 1.0 14.95 1.0 1.0 1.0 1.0 14.2 1.0 82.8 1.0 98.0" ffdec:has-small-stroke="true" ffdec:original-stroke-width="0.1" fill="none" stroke="#967e50" stroke-linecap="round" stroke-linejoin="round" stroke-width="1.0"/>
    <path d="M99.0 99.0 L83.3 99.0 14.95 99.0 0.0 99.0 0.0 82.8 0.0 14.2 0.0 0.0 14.95 0.0 83.3 0.0 99.0 0.0 99.0 14.2 99.0 82.8 99.0 99.0 M2.0 97.0 L14.95 97.0 83.3 97.0 97.0 97.0 97.0 82.8 97.0 14.2 97.0 2.0 83.3 2.0 14.95 2.0 2.0 2.0 2.0 14.2 2.0 82.8 2.0 97.0 Z" ffdec:has-small-stroke="true" ffdec:original-stroke-width="0.1" fill="none" stroke="#000000" stroke-linecap="round" stroke-linejoin="round" stroke-width="1.0"/>
    <path d="M97.0 97.0 L85.0 97.0 85.0 82.8 85.0 14.2 85.0 2.0 97.0 2.0 97.0 14.2 97.0 82.8 97.0 97.0" fill="url(#gradient0)" fill-rule="evenodd" stroke="none"/>
    <path d="M14.0 97.0 L2.0 97.0 2.0 82.8 2.0 14.2 2.0 2.0 14.0 2.0 14.0 14.2 14.0 82.8 14.0 97.0" fill="url(#gradient1)" fill-rule="evenodd" stroke="none"/>
    <path d="M14.95 2.0 L83.3 2.0 97.0 2.0 97.0 14.0 83.3 14.0 14.95 14.0 2.0 14.0 2.0 2.0 14.95 2.0" fill="url(#gradient2)" fill-rule="evenodd" stroke="none"/>
    <path d="M14.95 85.0 L83.3 85.0 97.0 85.0 97.0 97.0 83.3 97.0 14.95 97.0 2.0 97.0 2.0 85.0 14.95 85.0" fill="url(#gradient3)" fill-rule="evenodd" stroke="none"/>
    <path d="M99.0 100.0 L99.0 99.0 100.0 99.0 100.0 100.0 99.0 100.0" fill="#000000" fill-opacity="0.003921569" fill-rule="evenodd" stroke="none"/>
  </g>
  <defs>
    <linearGradient gradientTransform="matrix(-0.0073, 0.0, 0.0, -0.1031, 91.0, 86.45)" gradientUnits="userSpaceOnUse" id="gradient0" spreadMethod="pad" x1="-819.2" x2="819.2">
      <stop offset="0.0" stop-color="#000000" stop-opacity="0.70980394"/>
      <stop offset="1.0" stop-color="#000000" stop-opacity="0.0"/>
    </linearGradient>
    <linearGradient gradientTransform="matrix(0.0073, 0.0, 0.0, 0.1031, 8.0, 86.45)" gradientUnits="userSpaceOnUse" id="gradient1" spreadMethod="pad" x1="-819.2" x2="819.2">
      <stop offset="0.0" stop-color="#000000" stop-opacity="0.70980394"/>
      <stop offset="1.0" stop-color="#000000" stop-opacity="0.0"/>
    </linearGradient>
    <linearGradient gradientTransform="matrix(0.0, 0.0073, -0.105, 0.0, 88.0, 8.0)" gradientUnits="userSpaceOnUse" id="gradient2" spreadMethod="pad" x1="-819.2" x2="819.2">
      <stop offset="0.0" stop-color="#000000" stop-opacity="0.70980394"/>
      <stop offset="1.0" stop-color="#000000" stop-opacity="0.0"/>
    </linearGradient>
    <linearGradient gradientTransform="matrix(0.0, -0.0073, 0.105, 0.0, 88.0, 91.0)" gradientUnits="userSpaceOnUse" id="gradient3" spreadMethod="pad" x1="-819.2" x2="819.2">
      <stop offset="0.0" stop-color="#000000" stop-opacity="0.70980394"/>
      <stop offset="1.0" stop-color="#000000" stop-opacity="0.0"/>
    </linearGradient>
  </defs>
</svg>
