<?xml version="1.0" encoding="UTF-8" standalone="no"?>
<svg xmlns:ffdec="https://www.free-decompiler.com/flash" xmlns:xlink="http://www.w3.org/1999/xlink" ffdec:objectType="shape" height="18.0px" width="18.0px" xmlns="http://www.w3.org/2000/svg">
  <g transform="matrix(1.0, 0.0, 0.0, 1.0, 0.0, 0.0)">
    <path d="M18.0 18.0 L0.0 18.0 0.0 0.0 18.0 0.0 18.0 18.0" fill="#000000" fill-opacity="0.003921569" fill-rule="evenodd" stroke="none"/>
    <path d="M14.25 5.75 Q16.0 7.5 16.0 10.0 16.0 12.5 14.25 14.25 12.5 16.0 10.0 16.0 7.5 16.0 5.75 14.25 L5.3 13.75 Q4.0 12.15 4.0 10.0 4.0 7.5 5.75 5.75 7.5 4.0 10.0 4.0 12.15 4.0 13.75 5.3 L14.25 5.75" fill="#000000" fill-opacity="0.003921569" fill-rule="evenodd" stroke="none"/>
    <path d="M14.25 5.75 Q16.0 7.5 16.0 10.0 16.0 12.5 14.25 14.25 12.5 16.0 10.0 16.0 7.5 16.0 5.75 14.25 L5.3 13.75 Q4.0 12.15 4.0 10.0 4.0 7.5 5.75 5.75 7.5 4.0 10.0 4.0 12.15 4.0 13.75 5.3 L14.25 5.75 Z" fill="none" stroke="#000000" stroke-linecap="round" stroke-linejoin="round" stroke-width="2.0"/>
    <path d="M13.75 5.3 Q15.0 6.85 15.0 9.0 15.0 11.5 13.25 13.25 11.5 15.0 9.0 15.0 6.85 15.0 5.3 13.75 L4.75 13.25 Q3.0 11.5 3.0 9.0 3.0 6.5 4.75 4.75 6.5 3.0 9.0 3.0 11.5 3.0 13.25 4.75 L13.75 5.3 Z" fill="none" stroke="#cccccc" stroke-linecap="round" stroke-linejoin="round" stroke-width="2.0"/>
  </g>
</svg>
