<?xml version="1.0" encoding="UTF-8" standalone="no"?>
<svg xmlns:ffdec="https://www.free-decompiler.com/flash" xmlns:xlink="http://www.w3.org/1999/xlink" ffdec:objectType="shape" height="44.0px" width="67.0px" xmlns="http://www.w3.org/2000/svg">
  <g transform="matrix(1.0, 0.0, 0.0, 1.0, 0.0, 0.0)">
    <path d="M1.0 1.0 L1.0 0.0 7.7 0.0 59.55 0.0 66.0 0.0 66.0 1.0 67.0 1.0 67.0 7.95 67.0 36.05 67.0 43.0 66.0 43.0 66.0 44.0 59.55 44.0 7.7 44.0 1.0 44.0 1.0 43.0 0.0 43.0 0.0 36.05 0.0 7.95 0.0 1.0 1.0 1.0 M1.0 2.0 L1.0 7.95 1.0 36.05 1.0 42.0 2.0 42.0 2.0 43.0 7.7 43.0 59.55 43.0 65.0 43.0 65.0 42.0 66.0 42.0 66.0 36.05 66.0 7.95 66.0 2.0 65.0 2.0 65.0 1.0 59.55 1.0 7.7 1.0 2.0 1.0 2.0 2.0 1.0 2.0 M2.0 41.0 L2.0 36.05 2.0 7.95 2.0 3.0 3.0 3.0 3.0 2.0 7.7 2.0 59.55 2.0 64.0 2.0 64.0 3.0 65.0 3.0 65.0 7.95 65.0 36.05 65.0 41.0 64.0 41.0 64.0 42.0 59.55 42.0 7.7 42.0 3.0 42.0 3.0 41.0 2.0 41.0 M3.0 7.95 L3.0 36.05 3.0 40.0 4.0 40.0 4.0 41.0 7.7 41.0 59.55 41.0 63.0 41.0 63.0 40.0 64.0 40.0 64.0 36.05 64.0 7.95 64.0 4.0 63.0 4.0 63.0 3.0 59.55 3.0 7.7 3.0 4.0 3.0 4.0 4.0 3.0 4.0 3.0 7.95" fill="#000000" fill-rule="evenodd" stroke="none"/>
    <path d="M3.0 7.95 L3.0 4.0 4.0 4.0 4.0 3.0 7.7 3.0 59.55 3.0 63.0 3.0 63.0 4.0 64.0 4.0 64.0 7.95 64.0 36.05 64.0 40.0 63.0 40.0 63.0 41.0 59.55 41.0 7.7 41.0 4.0 41.0 4.0 40.0 3.0 40.0 3.0 36.05 3.0 7.95" fill="#d8caaf" fill-rule="evenodd" stroke="none"/>
    <path d="M1.0 2.0 L2.0 2.0 2.0 1.0 7.7 1.0 59.55 1.0 65.0 1.0 65.0 2.0 66.0 2.0 66.0 7.95 66.0 36.05 66.0 42.0 65.0 42.0 65.0 43.0 59.55 43.0 7.7 43.0 2.0 43.0 2.0 42.0 1.0 42.0 1.0 36.05 1.0 7.95 1.0 2.0 M2.0 41.0 L3.0 41.0 3.0 42.0 7.7 42.0 59.55 42.0 64.0 42.0 64.0 41.0 65.0 41.0 65.0 36.05 65.0 7.95 65.0 3.0 64.0 3.0 64.0 2.0 59.55 2.0 7.7 2.0 3.0 2.0 3.0 3.0 2.0 3.0 2.0 7.95 2.0 36.05 2.0 41.0" fill="#b58875" fill-rule="evenodd" stroke="none"/>
    <path d="M64.0 7.0 L59.55 7.0 7.7 7.0 3.0 7.0 3.0 3.05 7.7 3.05 59.55 3.0 64.0 3.0 64.0 7.0" fill="url(#gradient0)" fill-rule="evenodd" stroke="none"/>
    <path d="M64.0 40.95 L59.55 40.95 7.7 41.0 3.0 41.0 3.0 37.0 7.7 37.0 59.55 37.0 64.0 37.0 64.0 40.95" fill="url(#gradient1)" fill-rule="evenodd" stroke="none"/>
    <path d="M60.0 40.95 L60.0 36.05 60.0 7.95 60.0 2.95 63.95 2.95 63.95 7.95 64.0 36.05 64.0 40.95 60.0 40.95" fill="url(#gradient2)" fill-rule="evenodd" stroke="none"/>
    <path d="M3.05 41.05 L3.05 36.05 3.0 7.95 3.0 3.05 7.0 3.05 7.0 7.95 7.0 36.05 7.0 41.05 3.05 41.05" fill="url(#gradient3)" fill-rule="evenodd" stroke="none"/>
  </g>
  <defs>
    <linearGradient gradientTransform="matrix(0.0, 0.0024, -0.4912, 1.0E-4, 405.4, 4.9)" gradientUnits="userSpaceOnUse" id="gradient0" spreadMethod="pad" x1="-819.2" x2="819.2">
      <stop offset="0.0" stop-color="#000000" stop-opacity="0.2"/>
      <stop offset="1.0" stop-color="#000000" stop-opacity="0.0"/>
    </linearGradient>
    <linearGradient gradientTransform="matrix(0.0, -0.0024, 0.4912, -1.0E-4, -338.4, 39.1)" gradientUnits="userSpaceOnUse" id="gradient1" spreadMethod="pad" x1="-819.2" x2="819.2">
      <stop offset="0.0" stop-color="#000000" stop-opacity="0.2"/>
      <stop offset="1.0" stop-color="#000000" stop-opacity="0.0"/>
    </linearGradient>
    <linearGradient gradientTransform="matrix(-0.0024, 0.0, -1.0E-4, -0.3058, 62.1, 253.5)" gradientUnits="userSpaceOnUse" id="gradient2" spreadMethod="pad" x1="-819.2" x2="819.2">
      <stop offset="0.0" stop-color="#000000" stop-opacity="0.29803923"/>
      <stop offset="1.0" stop-color="#000000" stop-opacity="0.0"/>
    </linearGradient>
    <linearGradient gradientTransform="matrix(0.0024, 0.0, 1.0E-4, 0.3058, 4.9, -209.5)" gradientUnits="userSpaceOnUse" id="gradient3" spreadMethod="pad" x1="-819.2" x2="819.2">
      <stop offset="0.0" stop-color="#000000" stop-opacity="0.29803923"/>
      <stop offset="1.0" stop-color="#000000" stop-opacity="0.0"/>
    </linearGradient>
  </defs>
</svg>
