<?xml version="1.0" encoding="UTF-8" standalone="no"?>
<svg xmlns:ffdec="https://www.free-decompiler.com/flash" xmlns:xlink="http://www.w3.org/1999/xlink" ffdec:objectType="shape" height="44.0px" width="67.0px" xmlns="http://www.w3.org/2000/svg">
  <g transform="matrix(1.0, 0.0, 0.0, 1.0, 0.0, 0.0)">
    <path d="M1.0 2.0 L2.0 2.0 2.0 1.0 4.45 1.0 62.55 1.0 65.0 1.0 65.0 2.0 66.0 2.0 66.0 4.45 66.0 39.3 66.0 42.0 65.0 42.0 65.0 43.0 62.55 43.0 4.45 43.0 2.0 43.0 2.0 42.0 1.0 42.0 1.0 39.3 1.0 4.45 1.0 2.0 M2.0 41.0 L3.0 41.0 3.0 42.0 4.45 42.0 62.55 42.0 64.0 42.0 64.0 41.0 65.0 41.0 65.0 39.3 65.0 4.45 65.0 3.0 64.0 3.0 64.0 2.0 62.55 2.0 4.45 2.0 3.0 2.0 3.0 3.0 2.0 3.0 2.0 4.45 2.0 39.3 2.0 41.0" fill="#b58875" fill-rule="evenodd" stroke="none"/>
    <path d="M1.0 1.0 L1.0 0.0 4.45 0.0 62.55 0.0 66.0 0.0 66.0 1.0 67.0 1.0 67.0 4.45 67.0 39.3 67.0 43.0 66.0 43.0 66.0 44.0 62.55 44.0 4.45 44.0 1.0 44.0 1.0 43.0 0.0 43.0 0.0 39.3 0.0 4.45 0.0 1.0 1.0 1.0 M1.0 2.0 L1.0 4.45 1.0 39.3 1.0 42.0 2.0 42.0 2.0 43.0 4.45 43.0 62.55 43.0 65.0 43.0 65.0 42.0 66.0 42.0 66.0 39.3 66.0 4.45 66.0 2.0 65.0 2.0 65.0 1.0 62.55 1.0 4.45 1.0 2.0 1.0 2.0 2.0 1.0 2.0 M3.0 4.45 L3.0 39.3 3.0 40.0 4.0 40.0 4.0 41.0 4.45 41.0 62.55 41.0 63.0 41.0 63.0 40.0 64.0 40.0 64.0 39.3 64.0 4.45 64.0 4.0 63.0 4.0 63.0 3.0 62.55 3.0 4.45 3.0 4.0 3.0 4.0 4.0 3.0 4.0 3.0 4.45 M2.0 41.0 L2.0 39.3 2.0 4.45 2.0 3.0 3.0 3.0 3.0 2.0 4.45 2.0 62.55 2.0 64.0 2.0 64.0 3.0 65.0 3.0 65.0 4.45 65.0 39.3 65.0 41.0 64.0 41.0 64.0 42.0 62.55 42.0 4.45 42.0 3.0 42.0 3.0 41.0 2.0 41.0" fill="#000000" fill-rule="evenodd" stroke="none"/>
    <path d="M3.0 4.45 L3.0 4.0 4.0 4.0 4.0 3.0 4.45 3.0 62.55 3.0 63.0 3.0 63.0 4.0 64.0 4.0 64.0 4.45 64.0 39.3 64.0 40.0 63.0 40.0 63.0 41.0 62.55 41.0 4.45 41.0 4.0 41.0 4.0 40.0 3.0 40.0 3.0 39.3 3.0 4.45" fill="#d8caaf" fill-rule="evenodd" stroke="none"/>
  </g>
</svg>
