<?xml version="1.0" encoding="UTF-8" standalone="no"?>
<svg xmlns:ffdec="https://www.free-decompiler.com/flash" xmlns:xlink="http://www.w3.org/1999/xlink" ffdec:objectType="shape" height="15.1px" width="15.1px" xmlns="http://www.w3.org/2000/svg">
  <g transform="matrix(1.0, 0.0, 0.0, 1.0, 7.5, 7.5)">
    <path d="M5.55 -7.5 L7.6 -5.45 2.05 0.05 7.55 5.5 5.55 7.6 0.05 2.05 -5.4 7.55 -7.45 5.5 -1.95 0.05 -7.5 -5.45 -5.45 -7.5 0.05 -1.95 5.55 -7.5" fill="#ff0000" fill-opacity="0.49803922" fill-rule="evenodd" stroke="none"/>
    <path d="M5.55 -7.5 L7.6 -5.45 2.05 0.05 7.55 5.5 5.55 7.6 0.05 2.05 -5.4 7.55 -7.45 5.5 -1.95 0.05 -7.5 -5.45 -5.45 -7.5 0.05 -1.95 5.55 -7.5 Z" ffdec:has-small-stroke="true" ffdec:original-stroke-width="0.05" fill="none" stroke="#000000" stroke-linecap="round" stroke-linejoin="round" stroke-opacity="0.49803922" stroke-width="1.0"/>
  </g>
</svg>
