<?xml version="1.0" encoding="UTF-8" standalone="no"?>
<svg xmlns:ffdec="https://www.free-decompiler.com/flash" xmlns:xlink="http://www.w3.org/1999/xlink" ffdec:objectType="shape" height="17.0px" width="25.0px" xmlns="http://www.w3.org/2000/svg">
  <g transform="matrix(1.0, 0.0, 0.0, 1.0, 0.0, 0.0)">
    <path d="M20.0 16.0 L22.0 16.0 22.0 15.0 23.0 15.0 23.0 14.0 24.0 14.0 24.0 12.0 24.0 0.0 25.0 0.0 25.0 12.0 25.0 15.0 24.0 15.0 24.0 16.0 23.0 16.0 23.0 17.0 20.0 17.0 4.95 17.0 2.0 17.0 2.0 16.0 1.0 16.0 1.0 15.0 0.0 15.0 0.0 12.0 0.0 0.0 1.0 0.0 1.0 12.0 1.0 14.0 2.0 14.0 2.0 15.0 3.0 15.0 3.0 16.0 4.95 16.0 5.0 16.0 20.0 16.0 M22.0 0.0 L22.0 12.0 22.0 13.0 21.0 13.0 21.0 14.0 20.0 14.0 5.0 14.0 4.95 14.0 4.0 14.0 4.0 13.0 3.0 13.0 3.0 12.0 3.0 0.0 4.0 0.0 4.0 12.0 4.95 12.0 5.0 12.0 5.0 13.0 20.0 13.0 20.0 12.0 21.0 12.0 21.0 0.0 22.0 0.0" fill="#000000" fill-rule="evenodd" stroke="none"/>
    <path d="M23.0 0.0 L23.0 12.0 23.0 13.0 22.0 13.0 22.0 12.0 22.0 0.0 23.0 0.0 M20.0 15.0 L20.0 16.0 5.0 16.0 5.0 15.0 20.0 15.0" fill="#a07967" fill-rule="evenodd" stroke="none"/>
    <path d="M22.0 13.0 L23.0 13.0 23.0 12.0 23.0 0.0 24.0 0.0 24.0 12.0 24.0 14.0 23.0 14.0 23.0 15.0 22.0 15.0 22.0 16.0 20.0 16.0 20.0 15.0 21.0 15.0 21.0 14.0 22.0 14.0 22.0 13.0" fill="#3b2921" fill-rule="evenodd" stroke="none"/>
    <path d="M4.0 0.0 L4.95 0.0 20.0 0.0 21.0 0.0 21.0 12.0 20.0 12.0 20.0 13.0 5.0 13.0 5.0 12.0 4.95 12.0 4.0 12.0 4.0 0.0" fill="#16150b" fill-rule="evenodd" stroke="none"/>
    <path d="M22.0 13.0 L22.0 14.0 21.0 14.0 21.0 15.0 20.0 15.0 20.0 14.0 21.0 14.0 21.0 13.0 22.0 13.0" fill="#ca9f8b" fill-rule="evenodd" stroke="none"/>
    <path d="M2.0 0.0 L2.0 12.0 2.0 13.0 3.0 13.0 3.0 14.0 2.0 14.0 1.0 14.0 1.0 12.0 1.0 0.0 2.0 0.0" fill="#b18773" fill-rule="evenodd" stroke="none"/>
    <path d="M3.0 0.0 L3.0 12.0 3.0 13.0 4.0 13.0 4.0 14.0 3.0 14.0 3.0 13.0 2.0 13.0 2.0 12.0 2.0 0.0 3.0 0.0" fill="#492e22" fill-rule="evenodd" stroke="none"/>
    <path d="M5.0 15.0 L5.0 16.0 4.95 16.0 3.0 16.0 3.0 15.0 2.0 15.0 2.0 14.0 3.0 14.0 4.0 14.0 4.0 15.0 4.95 15.0 5.0 15.0" fill="#946d5b" fill-rule="evenodd" stroke="none"/>
    <path d="M4.0 14.0 L4.95 14.0 5.0 14.0 5.0 15.0 4.95 15.0 4.0 15.0 4.0 14.0" fill="#775240" fill-rule="evenodd" stroke="none"/>
    <path d="M20.0 14.0 L20.0 15.0 5.0 15.0 5.0 14.0 20.0 14.0" fill="#573223" fill-rule="evenodd" stroke="none"/>
  </g>
</svg>
