<?xml version="1.0" encoding="UTF-8" standalone="no"?>
<svg xmlns:ffdec="https://www.free-decompiler.com/flash" xmlns:xlink="http://www.w3.org/1999/xlink" ffdec:objectType="shape" height="62.0px" width="193.0px" xmlns="http://www.w3.org/2000/svg">
  <g transform="matrix(1.0, 0.0, 0.0, 1.0, 0.0, 0.0)">
    <path d="M1.0 20.0 L1.0 20.95 1.0 58.05 1.0 59.0 1.0 60.0 2.0 60.0 2.0 61.0 3.0 61.0 4.2 61.0 154.05 61.0 191.0 61.0 191.0 60.0 192.0 60.0 192.0 58.05 192.0 20.95 192.0 20.0 192.0 19.0 191.0 19.0 191.0 18.0 190.0 18.0 171.0 18.0 171.0 2.0 155.0 18.0 154.05 18.0 4.2 18.0 3.0 18.0 2.0 18.0 2.0 19.0 1.0 19.0 1.0 20.0 M0.0 20.95 L0.0 19.0 1.0 19.0 1.0 18.0 2.0 18.0 2.0 17.0 4.2 17.0 154.05 17.0 155.0 17.0 172.0 0.0 172.0 17.0 191.0 17.0 191.0 18.0 192.0 18.0 192.0 19.0 193.0 19.0 193.0 20.95 193.0 58.05 193.0 60.0 192.0 60.0 192.0 61.0 191.0 61.0 191.0 62.0 154.05 62.0 4.2 62.0 2.0 62.0 2.0 61.0 1.0 61.0 1.0 60.0 0.0 60.0 0.0 58.05 0.0 20.95" fill="#0e0500" fill-rule="evenodd" stroke="none"/>
    <path d="M190.0 19.0 L190.0 18.0 191.0 18.0 191.0 19.0 192.0 19.0 192.0 20.0 191.0 20.0 191.0 19.0 190.0 19.0" fill="#41351b" fill-rule="evenodd" stroke="none"/>
    <path d="M190.0 19.0 L191.0 19.0 191.0 20.0 190.0 20.0 190.0 19.0" fill="#7f7359" fill-rule="evenodd" stroke="none"/>
    <path d="M3.0 20.0 L3.0 20.95 3.0 58.05 3.0 59.0 2.0 59.0 2.0 58.05 2.0 20.95 2.0 20.0 3.0 20.0 3.0 19.0 4.2 19.0 154.05 19.0 155.0 19.0 170.0 4.0 170.0 19.0 190.0 19.0 190.0 20.0 169.0 20.0 169.0 6.0 155.0 20.0 154.05 20.0 4.2 20.0 3.0 20.0" fill="#504029" fill-rule="evenodd" stroke="none"/>
    <path d="M3.0 59.0 L4.2 59.0 154.05 59.0 190.0 59.0 190.0 58.05 190.0 20.95 190.0 20.0 191.0 20.0 191.0 20.95 191.0 58.05 191.0 60.0 154.05 60.0 4.2 60.0 3.0 60.0 3.0 59.0" fill="#a0947a" fill-rule="evenodd" stroke="none"/>
    <path d="M192.0 20.0 L192.0 20.95 192.0 58.05 192.0 60.0 191.0 60.0 191.0 61.0 154.05 61.0 4.2 61.0 3.0 61.0 3.0 60.0 4.2 60.0 154.05 60.0 191.0 60.0 191.0 58.05 191.0 20.95 191.0 20.0 192.0 20.0" fill="#6e543d" fill-rule="evenodd" stroke="none"/>
    <path d="M3.0 20.0 L2.0 20.0 2.0 20.95 2.0 58.05 2.0 59.0 1.0 59.0 1.0 58.05 1.0 20.95 1.0 20.0 2.0 20.0 2.0 19.0 3.0 19.0 3.0 20.0 M190.0 19.0 L170.0 19.0 170.0 4.0 155.0 19.0 154.05 19.0 4.2 19.0 3.0 19.0 3.0 18.0 4.2 18.0 154.05 18.0 155.0 18.0 171.0 2.0 171.0 18.0 190.0 18.0 190.0 19.0" fill="#aa9079" fill-rule="evenodd" stroke="none"/>
    <path d="M3.0 59.0 L3.0 58.05 3.0 20.95 3.0 20.0 4.2 20.0 154.05 20.0 155.0 20.0 169.0 6.0 169.0 20.0 190.0 20.0 190.0 20.95 190.0 58.05 190.0 59.0 154.05 59.0 4.2 59.0 3.0 59.0" fill="#e9e0b5" fill-rule="evenodd" stroke="none"/>
    <path d="M3.0 19.0 L2.0 19.0 2.0 20.0 1.0 20.0 1.0 19.0 2.0 19.0 2.0 18.0 3.0 18.0 3.0 19.0" fill="#453208" fill-rule="evenodd" stroke="none"/>
    <path d="M2.0 59.0 L3.0 59.0 3.0 60.0 2.0 60.0 1.0 60.0 1.0 59.0 2.0 59.0" fill="#7b5e40" fill-rule="evenodd" stroke="none"/>
    <path d="M3.0 61.0 L2.0 61.0 2.0 60.0 3.0 60.0 3.0 61.0" fill="#4e2f10" fill-rule="evenodd" stroke="none"/>
  </g>
</svg>
