<?xml version="1.0" encoding="UTF-8" standalone="no"?>
<svg xmlns:ffdec="https://www.free-decompiler.com/flash" xmlns:xlink="http://www.w3.org/1999/xlink" ffdec:objectType="shape" height="36.0px" width="36.0px" xmlns="http://www.w3.org/2000/svg">
  <g transform="matrix(1.0, 0.0, 0.0, 1.0, 0.0, 0.0)">
    <path d="M0.0 0.95 L1.0 0.95 1.0 0.0 4.9 0.0 31.0 0.0 35.0 0.0 35.0 0.9 36.0 0.9 36.0 4.95 36.0 31.0 36.0 35.0 35.05 35.0 35.05 36.0 31.0 36.0 4.9 36.0 0.9 36.0 0.9 35.05 0.0 35.05 0.0 31.0 0.0 4.95 0.0 0.95" fill="#000000" fill-rule="evenodd" stroke="none"/>
    <path d="M31.4 32.4 L31.0 32.4 4.9 32.4 4.4 32.4 4.4 31.4 3.4 31.4 3.4 31.0 3.4 4.95 3.4 4.4 4.4 4.4 4.4 3.4 4.9 3.4 31.0 3.4 31.4 3.4 31.4 4.4 32.4 4.4 32.4 4.95 32.4 31.0 32.4 31.4 31.4 31.4 31.4 32.4" fill="url(#gradient0)" fill-rule="evenodd" stroke="none"/>
    <path d="M33.4 1.4 L33.4 2.4 34.4 2.4 34.4 4.95 34.5 31.0 34.5 33.5 33.5 33.5 33.4 34.4" fill="none" stroke="#21211f" stroke-linecap="round" stroke-linejoin="round" stroke-width="1.0"/>
    <path d="M31.4 32.4 L31.4 31.4 32.4 31.4 32.4 31.0 32.4 4.95 32.4 4.4 31.4 4.4 31.4 3.4" fill="none" stroke="#11110e" stroke-linecap="round" stroke-linejoin="round" stroke-width="1.0"/>
    <path d="M33.4 34.4 L31.0 34.4 4.9 34.4 2.4 34.4 2.4 33.4 1.4 33.4 1.4 31.0 1.4 4.95 1.4 2.4 2.4 2.4 2.4 1.4" fill="none" stroke="#858384" stroke-linecap="round" stroke-linejoin="round" stroke-width="1.0"/>
    <path d="M31.4 3.4 L31.0 3.4 4.9 3.4 4.4 3.4 4.4 4.4 3.4 4.4 3.4 4.95 3.4 31.0 3.4 31.4 4.4 31.4 4.4 32.4 4.9 32.4 31.0 32.4 31.4 32.4" fill="none" stroke="#424241" stroke-linecap="round" stroke-linejoin="round" stroke-width="1.0"/>
    <path d="M2.4 1.4 L4.9 1.4 31.0 1.4 33.4 1.4" fill="none" stroke="#343434" stroke-linecap="round" stroke-linejoin="round" stroke-width="1.0"/>
  </g>
  <defs>
    <linearGradient gradientTransform="matrix(0.0, 0.0135, -0.0177, 0.0, 17.9, 17.05)" gradientUnits="userSpaceOnUse" id="gradient0" spreadMethod="pad" x1="-819.2" x2="819.2">
      <stop offset="0.0" stop-color="#212220"/>
      <stop offset="1.0" stop-color="#6c6d6c"/>
    </linearGradient>
  </defs>
</svg>
