<?xml version="1.0" encoding="UTF-8" standalone="no"?>
<svg xmlns:ffdec="https://www.free-decompiler.com/flash" xmlns:xlink="http://www.w3.org/1999/xlink" ffdec:objectType="shape" height="84.0px" width="84.0px" xmlns="http://www.w3.org/2000/svg">
  <g transform="matrix(1.0, 0.0, 0.0, 1.0, 0.0, 0.0)">
    <path d="M2.0 27.85 L2.0 2.0 28.0 2.0 28.0 27.85 28.0 55.8 28.0 82.0 2.0 82.0 2.0 55.8 2.0 27.85" fill="url(#gradient0)" fill-rule="evenodd" stroke="none"/>
    <path d="M82.0 28.0 L55.8 28.0 28.2 28.0 2.0 28.0 2.0 27.85 2.0 2.0 28.2 2.0 55.8 2.0 82.0 2.0 82.0 27.85 82.0 28.0" fill="url(#gradient1)" fill-rule="evenodd" stroke="none"/>
    <path d="M81.0 56.0 L81.0 82.0 55.8 82.0 28.2 82.0 1.0 82.0 1.0 56.0 28.2 56.0 55.8 56.0 81.0 56.0" fill="url(#gradient2)" fill-rule="evenodd" stroke="none"/>
    <path d="M56.0 27.85 L56.0 2.0 82.0 2.0 82.0 27.85 82.0 55.8 82.0 82.0 56.0 82.0 56.0 55.8 56.0 27.85" fill="url(#gradient3)" fill-rule="evenodd" stroke="none"/>
    <path d="M2.0 2.0 L2.0 1.0 28.2 1.0 55.8 1.0 82.0 1.0 82.0 2.0 83.0 2.0 83.0 27.85 83.0 55.8 83.0 82.0 82.0 82.0 82.0 83.0 55.8 83.0 28.2 83.0 2.0 83.0 2.0 82.0 1.0 82.0 1.0 55.8 1.0 27.85 1.0 2.0 2.0 2.0 M2.0 81.0 L3.0 81.0 3.0 82.0 28.2 82.0 55.8 82.0 81.0 82.0 81.0 81.0 82.0 81.0 82.0 55.8 82.0 27.85 82.0 3.0 81.0 3.0 81.0 2.0 55.8 2.0 28.2 2.0 3.0 2.0 3.0 3.0 2.0 3.0 2.0 27.85 2.0 55.8 2.0 81.0" fill="#967d4f" fill-rule="evenodd" stroke="none"/>
    <path d="M1.0 1.0 L1.0 0.0 28.2 0.0 55.8 0.0 83.0 0.0 83.0 1.0 84.0 1.0 84.0 27.85 84.0 55.8 84.0 83.0 83.0 83.0 83.0 84.0 55.8 84.0 28.2 84.0 1.0 84.0 1.0 83.0 0.0 83.0 0.0 55.8 0.0 27.85 0.0 1.0 1.0 1.0 M2.0 2.0 L1.0 2.0 1.0 27.85 1.0 55.8 1.0 82.0 2.0 82.0 2.0 83.0 28.2 83.0 55.8 83.0 82.0 83.0 82.0 82.0 83.0 82.0 83.0 55.8 83.0 27.85 83.0 2.0 82.0 2.0 82.0 1.0 55.8 1.0 28.2 1.0 2.0 1.0 2.0 2.0 M4.0 4.0 L3.0 4.0 3.0 27.85 3.0 55.8 3.0 80.0 4.0 80.0 4.0 81.0 28.2 81.0 55.8 81.0 80.0 81.0 80.0 80.0 81.0 80.0 81.0 55.8 81.0 27.85 81.0 4.0 80.0 4.0 80.0 3.0 55.8 3.0 28.2 3.0 4.0 3.0 4.0 4.0 M2.0 81.0 L2.0 55.8 2.0 27.85 2.0 3.0 3.0 3.0 3.0 2.0 28.2 2.0 55.8 2.0 81.0 2.0 81.0 3.0 82.0 3.0 82.0 27.85 82.0 55.8 82.0 81.0 81.0 81.0 81.0 82.0 55.8 82.0 28.2 82.0 3.0 82.0 3.0 81.0 2.0 81.0" fill="#000000" fill-rule="evenodd" stroke="none"/>
  </g>
  <defs>
    <linearGradient gradientTransform="matrix(0.0159, 0.0, 0.0, 0.326, 15.0, 268.95)" gradientUnits="userSpaceOnUse" id="gradient0" spreadMethod="pad" x1="-819.2" x2="819.2">
      <stop offset="0.0" stop-color="#000000" stop-opacity="0.49803922"/>
      <stop offset="1.0" stop-color="#000000" stop-opacity="0.0"/>
    </linearGradient>
    <linearGradient gradientTransform="matrix(0.0, 0.0159, -0.326, 0.0, -184.95, 15.0)" gradientUnits="userSpaceOnUse" id="gradient1" spreadMethod="pad" x1="-819.2" x2="819.2">
      <stop offset="0.0" stop-color="#000000" stop-opacity="0.49803922"/>
      <stop offset="1.0" stop-color="#000000" stop-opacity="0.0"/>
    </linearGradient>
    <linearGradient gradientTransform="matrix(0.0, -0.0159, 0.326, 0.0, 267.95, 69.0)" gradientUnits="userSpaceOnUse" id="gradient2" spreadMethod="pad" x1="-819.2" x2="819.2">
      <stop offset="0.0" stop-color="#000000" stop-opacity="0.49803922"/>
      <stop offset="1.0" stop-color="#000000" stop-opacity="0.0"/>
    </linearGradient>
    <linearGradient gradientTransform="matrix(-0.0159, 0.0, 0.0, -0.326, 69.0, -184.95)" gradientUnits="userSpaceOnUse" id="gradient3" spreadMethod="pad" x1="-819.2" x2="819.2">
      <stop offset="0.0" stop-color="#000000" stop-opacity="0.49803922"/>
      <stop offset="1.0" stop-color="#000000" stop-opacity="0.0"/>
    </linearGradient>
  </defs>
</svg>
